PathFileType	4	(X/Y/Z)	C:\Users\°ÂÌØÂü\Desktop\20210112\bx_y_10_502-Unnamed.trc
DataRate	CameraRate	NumFrames	NumMarkers	Units	OrigDataRate	OrigDataStartFrame	OrigNumFrames
50.00	50.00	       7	0	mm	50.00	125	       499
Frame#	Time	
		

125	2.480	-722.99567	158.18037	222.97247	-875.97089	286.02280	725.83185	-850.60638	281.54895	858.79114	-781.19867	-15.32216	795.05298	-951.36755	86.30772	1097.00378	-364.50864	-53.19058	1111.49646	-813.04370	144.91910	562.39978	-848.58502	247.99525	558.31189	-776.21423	11.50476	522.16595	-866.86298	260.99191	479.04492	-784.34064	206.89839	532.38879	-730.26477	69.48852	222.24870				-777.47095	227.80968	199.73405	-882.52844	296.12085	144.67358	-678.20868	51.55197	164.34714	-605.18567	19.34543	167.90948	-677.85315	176.43465	162.84865	-597.30353	222.13116	173.28198	-665.89081	299.50189	159.52672	-627.73846	306.45883	161.42296	-562.20898	257.63516	164.81010	-528.02209	304.13187	146.35739	-160.94547	101.02478	1284.85059	-371.27798	259.83844	1110.89099				-518.03516	-72.20837	142.64612	-800.54681	177.82101	180.59587				-860.17285	-78.09808	853.74115	-775.49670	-13.95679	200.55258	-798.78070	49.02950	172.28076	-858.61066	-44.64964	466.33734	-664.56030	-69.52248	159.70711	-876.05139	-78.44123	141.62697	-873.25867	-65.60050	698.53156	-840.84479	-37.29052	602.70953	-562.48413	-36.12055	163.30792	-622.90283	-80.75407	156.41112										-837.51062	-33.15056	553.64484	
126	2.500	-722.99567	158.18037	222.97247	-876.77472	285.88330	725.48260	-851.61633	281.40860	858.04962	-781.80731	-15.39203	794.83319	-952.81561	86.24571	1096.63354	-365.05164	-52.56083	1111.01611	-814.33191	145.66620	562.43671	-849.19427	248.30389	558.54297	-776.71027	11.18990	522.50055	-867.25806	260.86459	478.85303	-784.76343	206.73671	532.27118	-730.26221	69.50615	221.93602	-786.06921	211.68474	798.60059	-777.59595	227.90488	199.93124	-882.43616	296.14734	144.72641	-677.95624	51.44744	164.47931	-605.25793	19.26372	167.87949	-677.96112	176.24854	163.16788	-597.41870	222.04692	173.32155	-665.98016	299.48654	159.60957	-627.70123	306.38657	161.27998	-562.22784	257.73990	164.71100	-528.06384	303.93582	146.34503	-163.26651	101.52614	1286.09277	-372.08185	259.65787	1110.64160				-518.02997	-72.48139	142.74629	-800.44812	177.75500	180.54149				-860.98981	-77.93143	853.49542	-775.00928	-13.70302	199.98453	-798.73920	48.91526	172.18138	-859.06158	-44.53239	465.97229	-664.64130	-69.61475	159.67030	-876.18079	-78.60561	141.78276	-873.87164	-65.33178	697.84930	-841.12067	-37.52920	602.96643	-562.53430	-36.27024	163.33420	-622.73553	-80.69452	156.30463										-837.98706	-33.23151	553.49103	
127	2.520	-722.99567	158.18037	222.97247	-877.93555	286.14926	725.52399	-852.70831	281.68851	857.91699	-782.55060	-15.05330	794.69073	-953.78027	86.22225	1096.29260	-366.03989	-52.18648	1110.71790	-814.33191	145.66620	562.43671	-849.92328	248.18652	558.38715	-776.71027	11.18990	522.50055	-867.77350	260.89056	478.59933	-785.39001	206.81184	532.14844	-730.54285	69.33675	222.00894	-786.90216	211.95490	798.49213	-777.56036	227.78172	199.64615	-882.45056	295.99521	144.63437	-678.08368	51.38692	164.33867	-605.10022	19.35811	167.93997	-678.10345	176.32259	163.00890	-597.39166	222.12698	173.42339	-665.89081	299.50189	159.52672	-627.78259	306.53174	161.31584	-562.22784	257.73990	164.71100	-528.07617	304.03943	146.47450	-166.08856	101.91522	1287.38049	-373.00891	259.34180	1109.95056				-517.91626	-72.45073	143.09554	-800.54681	177.82101	180.59587				-861.99567	-77.75635	853.32947	-775.52600	-13.85764	200.30946	-798.74371	48.99728	172.24471	-859.29401	-44.65562	465.92722	-664.63171	-69.46464	159.61497	-876.07452	-78.53410	141.50810	-874.48999	-66.01246	698.03528	-841.49512	-37.77731	602.59259	-562.54376	-36.11482	163.34799	-622.75684	-80.72331	156.52986										-838.55841	-33.45351	553.60126	
128	2.540	-723.08856	158.22864	223.07050	-878.70306	286.19455	725.35339	-853.89557	281.73843	857.83075	-783.82196	-14.85901	794.72186	-955.20496	86.39422	1096.08655	-367.52710	-51.96437	1110.62952	-814.56421	145.35182	562.22784	-851.02350	248.25072	558.44116	-777.14453	11.59101	522.06354	-868.03705	261.00101	478.41669	-786.12854	206.74249	532.24915	-730.72833	69.42447	221.93930	-788.48914	211.57274	797.66577	-777.88806	227.80235	199.63495	-882.37628	296.02225	144.68523	-678.34045	51.53417	164.41730	-605.13562	19.31620	167.85330	-678.06891	176.06230	163.48720	-597.46906	222.25089	173.16058	-665.98016	299.48654	159.60957	-627.67206	306.53830	161.45406	-562.26794	257.68597	164.79657	-528.04382	304.13531	146.46031	-168.87839	102.50468	1288.90613	-373.52899	260.11935	1109.59412				-518.10437	-72.31445	142.90889	-800.71320	177.65601	180.78154				-863.10681	-77.95605	853.36743	-775.47772	-14.05595	200.39401	-798.85150	48.81427	172.42337	-859.56793	-44.73829	465.78198	-664.56030	-69.52248	159.70711	-876.02838	-78.54763	141.55200	-875.42920	-65.52425	697.64313	-842.53192	-37.01042	602.08380	-562.58527	-36.21159	163.42763	-622.83710	-80.87125	156.55310										-838.96173	-33.30443	553.25415	
129	2.560	-722.99567	158.18037	222.97247	-879.70648	286.17859	724.73566	-855.28070	280.97638	856.81543	-784.63757	-14.75082	794.74957	-956.39722	86.40707	1095.82556	-368.68210	-51.53589	1110.37402	-815.84198	144.82289	561.53339	-851.48779	248.05771	558.09308	-777.79718	11.56817	522.23932	-869.12775	260.92334	478.02954	-786.58319	207.00807	532.17291	-730.63696	69.31867	222.06982	-788.94879	211.91518	797.66614	-777.54962	227.81125	199.45865	-882.52582	296.01248	144.52502	-678.20074	51.45473	164.48532	-605.24847	19.29375	167.83328	-677.99756	176.13893	163.06656	-597.47412	221.99284	172.58434	-665.83301	299.45135	159.50743	-627.76038	306.52652	161.54492	-562.21460	257.88373	164.64017	-527.98035	304.06540	146.30266	-171.84579	102.85783	1290.30652	-374.28568	259.93356	1108.89502				-518.09351	-72.21384	143.00603	-800.82544	177.41249	180.61031				-864.41437	-77.89889	853.51294	-775.24420	-13.93410	200.09760	-798.69702	49.00578	172.30164	-860.17932	-44.65116	465.61829	-664.56030	-69.52248	159.70711	-876.18079	-78.60561	141.78276	-876.18365	-65.52258	697.48633	-843.13525	-37.20384	601.92938	-562.60620	-36.06358	163.35313	-622.73553	-80.69452	156.30463										-839.44122	-33.31612	553.30493	
130	2.580	-723.00232	158.30634	222.82518	-880.68536	286.25070	724.14661	-856.23767	281.63635	856.75391	-786.05042	-14.38388	794.69678	-958.00861	86.31116	1095.46814	-370.16595	-51.19756	1110.01965	-816.85803	145.06401	561.47882	-852.55286	247.97729	557.92328	-778.55505	11.66846	522.27307	-869.82526	261.07092	477.92978	-787.99707	206.67358	531.54529	-730.62610	69.57169	221.97560	-790.15948	211.52588	797.40521	-777.65814	227.72699	199.43600	-882.48456	296.10822	144.64120	-678.10541	51.50247	164.20140	-605.17926	19.47343	167.83838	-678.27032	176.01205	163.56386	-597.68604	222.18874	173.25848	-665.74365	299.46671	159.42456	-627.61810	306.54718	161.54324	-562.09949	257.88388	164.57892	-527.94409	303.93875	146.51778	-174.92328	103.50490	1291.88025	-375.13251	260.18036	1108.84412				-518.09729	-72.50585	143.16002	-800.87207	177.30089	180.76747				-865.52838	-78.02448	853.07373	-775.13666	-13.98117	200.14459	-798.86328	49.07912	172.45917	-860.62256	-44.52177	465.27222	-664.59052	-69.47019	159.79097	-876.15277	-78.70397	141.65302	-876.90521	-65.77071	697.43237	-843.77429	-37.49622	602.15753	-562.67865	-36.05185	163.37680	-622.79175	-80.80758	156.47025										-839.83026	-33.22174	552.86542	
131	2.600	-723.08856	158.22864	223.07050	-881.95496	286.02231	723.93018	-857.92316	281.37485	856.61670	-787.09937	-14.61316	794.48364	-959.48297	86.45921	1094.96692	-371.82333	-50.86636	1109.43530	-817.27783	145.09309	561.59174	-853.38568	248.16531	557.43970	-779.36615	11.67405	522.51343	-870.79578	261.11398	477.80209	-788.31903	206.76080	531.40753	-730.83411	69.32902	221.85095	-791.40796	211.44958	796.99048	-777.65814	227.72699	199.43600	-882.58551	295.99487	144.55261	-678.20074	51.45473	164.48532	-605.30133	19.55346	167.81201	-678.27032	176.01205	163.56386	-597.39166	222.12698	173.42339	-665.85345	299.57813	159.68275	-627.70123	306.38657	161.27998	-562.33649	257.66562	164.63885	-528.10150	304.01770	146.36639	-178.20612	104.21604	1293.32361	-376.31412	260.34940	1108.82532				-518.06720	-72.59088	143.05780	-801.04565	177.45006	180.60284				-866.59247	-78.15590	853.11157	-774.82623	-13.94870	199.73593	-798.78870	48.79258	172.47240	-861.04510	-44.63740	465.22858	-664.59235	-69.49218	159.80681	-876.13446	-78.66106	141.72231	-878.19659	-65.30198	696.56396	-844.25854	-37.96058	602.36780	-562.60095	-36.10905	163.23790	-622.66327	-80.67652	156.39491										-840.85382	-32.93582	552.41852	
